<?xml version="1.0" encoding="UTF-8" standalone="no"?>
<svg
   xmlns:dc="http://purl.org/dc/elements/1.1/"
   xmlns:cc="http://creativecommons.org/ns#"
   xmlns:rdf="http://www.w3.org/1999/02/22-rdf-syntax-ns#"
   xmlns:svg="http://www.w3.org/2000/svg"
   xmlns="http://www.w3.org/2000/svg"
   xmlns:sodipodi="http://sodipodi.sourceforge.net/DTD/sodipodi-0.dtd"
   xmlns:inkscape="http://www.inkscape.org/namespaces/inkscape"
   xml:space="preserve"
   version="1.1"
   style="shape-rendering:geometricPrecision;text-rendering:geometricPrecision;image-rendering:optimizeQuality;"
   viewBox="0 0 322 396.25"
   x="0px"
   y="0px"
   fill-rule="evenodd"
   clip-rule="evenodd"
   id="svg16"
   sodipodi:docname="Logid.svg"
   inkscape:version="1.0.1 (3bc2e813f5, 2020-09-07)"><metadata
     id="metadata20"><rdf:RDF><cc:Work
         rdf:about=""><dc:format>image/svg+xml</dc:format><dc:type
           rdf:resource="http://purl.org/dc/dcmitype/StillImage" /></cc:Work></rdf:RDF></metadata><sodipodi:namedview
     pagecolor="#ffffff"
     bordercolor="#666666"
     borderopacity="1"
     objecttolerance="10"
     gridtolerance="10"
     guidetolerance="10"
     inkscape:pageopacity="0"
     inkscape:pageshadow="2"
     inkscape:window-width="1920"
     inkscape:window-height="1001"
     id="namedview18"
     showgrid="false"
     inkscape:zoom="2.0946372"
     inkscape:cx="161"
     inkscape:cy="197.17018"
     inkscape:window-x="-9"
     inkscape:window-y="-9"
     inkscape:window-maximized="1"
     inkscape:current-layer="svg16" /><defs
     id="defs4"><style
       type="text/css"
       id="style2">
   
    .fil0 {fill:black;fill-rule:nonzero}
   
  </style></defs><g
     id="g10"><path
       class="fil0"
       d="M20 307c0,13 -20,13 -20,0 0,-60 49,-109 109,-109l104 0c60,0 109,49 109,109 0,13 -20,13 -20,0 0,-49 -40,-89 -89,-89l-104 0c-49,0 -89,40 -89,89z"
       id="path6" /><path
       class="fil0"
       d="M161 0c51,0 92,41 92,91 0,51 -41,92 -92,92 -50,0 -91,-41 -91,-92 0,-50 41,-91 91,-91zm0 20c-39,0 -71,32 -71,71 0,40 32,72 71,72 40,0 72,-32 72,-72 0,-39 -32,-71 -72,-71z"
       id="path8" /></g><path
     style="fill:#004455;stroke-width:0.47741"
     d="m 5.3307121,315.20971 c -1.9620157,-0.99378 -2.8820953,-1.83503 -3.7855314,-3.46122 -1.09307393,-1.96753 -1.18830981,-2.61041 -1.13156924,-7.63855 0.24345605,-21.57419 8.06861344,-43.8765 21.94348954,-62.54066 4.634941,-6.23482 14.672043,-16.30675 20.876162,-20.9486 17.016804,-12.73179 36.324391,-20.1927 56.897007,-21.98635 7.69872,-0.67122 113.95931,-0.67625 121.73946,-0.006 26.5568,2.28865 51.61689,14.37773 69.95173,33.74497 18.4228,19.46017 29.47561,46.09852 29.76493,71.7364 0.0567,5.02814 -0.0385,5.67102 -1.13157,7.63855 -0.90344,1.62619 -1.82351,2.46744 -3.78553,3.46122 -7.09558,3.59398 -14.31428,-0.80861 -14.34555,-8.74916 -0.0189,-4.79828 -1.00396,-12.99115 -2.22755,-18.52677 -5.33843,-24.15142 -20.14676,-44.71795 -41.46592,-57.58988 -10.66666,-6.44024 -24.26703,-10.87743 -37.20151,-12.13718 -7.12319,-0.69377 -113.73433,-0.69377 -120.85752,0 -28.265157,2.75287 -53.384905,18.64757 -68.233269,43.17506 -7.671487,12.67226 -12.60323,30.23047 -12.661709,45.07877 -0.03127,7.94055 -7.249972,12.34314 -14.3455499,8.74916 z"
     id="path22" /><path
     style="fill:#004455;stroke-width:0.47741"
     d="M 151.98036,182.30218 C 105.72122,177.46673 70.260407,137.76372 70.296086,90.845998 70.318852,60.907726 85.62083,32.524263 110.824,15.671249 c 33.74939,-22.5677587 78.01155,-20.0034304 109.6135,6.350458 16.10788,13.432881 27.29966,32.877785 31.01506,53.886426 1.10558,6.25144 1.46882,17.716528 0.77263,24.386107 -2.86924,27.48735 -17.90886,52.31776 -40.81345,67.383 -17.20823,11.31853 -39.22692,16.73691 -59.43138,14.62494 z m 22.99126,-20.44932 c 29.71493,-5.79968 52.08962,-28.79069 57.21773,-58.79382 1.38165,-8.083653 1.08386,-20.115307 -0.68399,-27.635029 -5.78738,-24.61728 -23.62115,-44.091925 -47.59365,-51.972732 -14.20102,-4.668499 -30.64776,-4.76095 -44.63385,-0.250898 -21.3163,6.873801 -38.72358,24.053764 -45.818994,45.220651 -2.727863,8.137705 -3.315826,12.174256 -3.315826,22.764209 0,8.309878 0.156948,10.489989 1.039954,14.445709 4.45833,19.97253 15.166576,35.62218 31.747616,46.39781 9.0577,5.88639 19.03937,9.36782 31.38566,10.94676 3.85672,0.49323 15.66445,-0.14855 20.65535,-1.12266 z"
     id="path24" /></svg>
