<?xml version="1.0" encoding="UTF-8" standalone="no"?>
<svg
   xmlns:dc="http://purl.org/dc/elements/1.1/"
   xmlns:cc="http://creativecommons.org/ns#"
   xmlns:rdf="http://www.w3.org/1999/02/22-rdf-syntax-ns#"
   xmlns:svg="http://www.w3.org/2000/svg"
   xmlns="http://www.w3.org/2000/svg"
   xmlns:sodipodi="http://sodipodi.sourceforge.net/DTD/sodipodi-0.dtd"
   xmlns:inkscape="http://www.inkscape.org/namespaces/inkscape"
   version="1.1"
   x="0px"
   y="0px"
   viewBox="0 0 100 125"
   enable-background="new 0 0 100 100"
   xml:space="preserve"
   id="svg10"
   sodipodi:docname="pwinput.svg"
   inkscape:version="1.0.1 (3bc2e813f5, 2020-09-07)"><metadata
     id="metadata16"><rdf:RDF><cc:Work
         rdf:about=""><dc:format>image/svg+xml</dc:format><dc:type
           rdf:resource="http://purl.org/dc/dcmitype/StillImage" /></cc:Work></rdf:RDF></metadata><defs
     id="defs14" /><sodipodi:namedview
     pagecolor="#ffffff"
     bordercolor="#666666"
     borderopacity="1"
     objecttolerance="10"
     gridtolerance="10"
     guidetolerance="10"
     inkscape:pageopacity="0"
     inkscape:pageshadow="2"
     inkscape:window-width="1920"
     inkscape:window-height="1001"
     id="namedview12"
     showgrid="false"
     inkscape:zoom="6.64"
     inkscape:cx="50"
     inkscape:cy="62.198795"
     inkscape:window-x="-9"
     inkscape:window-y="-9"
     inkscape:window-maximized="1"
     inkscape:current-layer="svg10" /><g
     id="g4"><path
       d="M50,85.25c13.027,0,23.625-10.598,23.625-23.625c0-6.386-2.551-12.184-6.681-16.44C66.978,45.003,67,44.817,67,44.625   V26.75c0-8.131-7.155-15-15.625-15h-2.75c-8.47,0-15.625,6.869-15.625,15v17.875c0,0.192,0.022,0.378,0.056,0.56   c-4.131,4.256-6.681,10.054-6.681,16.44C26.375,74.652,36.973,85.25,50,85.25z M53,64.59v3.91c0,1.654-1.346,3-3,3s-3-1.346-3-3   v-3.91c-1.557-1.011-2.5-2.718-2.5-4.59c0-3.032,2.467-5.5,5.5-5.5c3.032,0,5.5,2.468,5.5,5.5C55.5,61.872,54.557,63.579,53,64.59z    M48.625,17.75h2.75c5.127,0,9.625,4.206,9.625,9v13.976C57.712,38.989,53.97,38,50,38c-3.97,0-7.712,0.989-11,2.726V26.75   C39,21.956,43.498,17.75,48.625,17.75z"
       id="path2" /></g><path
     style="fill:#004455;stroke-width:0.150602"
     d="M 48.11747,85.077742 C 40.907214,84.522735 34.182192,80.469378 30.167023,74.258511 c -1.429197,-2.210755 -2.61016,-5.105714 -3.244949,-7.954519 -0.277474,-1.24525 -0.328491,-1.952569 -0.334113,-4.632305 -0.0058,-2.773292 0.03631,-3.354432 0.342206,-4.72044 0.914059,-4.081824 2.633924,-7.580081 5.210414,-10.598139 l 0.991949,-1.161951 0.0026,-10.057928 c 0.0027,-10.506348 0.01872,-10.809171 0.674161,-12.768771 1.578725,-4.719981 5.90408,-8.712486 10.844308,-10.009806 2.757958,-0.724248 7.934814,-0.724248 10.692772,0 1.431102,0.375812 3.591664,1.36899 4.877176,2.241964 2.690396,1.827013 4.987411,4.81676 5.962039,7.760063 0.663904,2.004943 0.681869,2.342816 0.681869,12.824047 v 10.010431 l 0.957298,1.121947 c 2.604431,3.052378 4.330158,6.552529 5.245065,10.638143 0.305896,1.366008 0.348025,1.947148 0.342206,4.72044 -0.0056,2.679736 -0.05664,3.387055 -0.334113,4.632305 -1.066479,4.786148 -3.216518,8.707624 -6.605077,12.047062 -4.926391,4.854978 -11.478293,7.256051 -18.355379,6.726688 z m 3.206301,-13.82901 c 0.681505,-0.350548 1.313158,-0.998398 1.528093,-1.567271 0.0881,-0.233178 0.160184,-1.442705 0.160184,-2.687838 v -2.263876 l 0.748408,-0.672883 c 2.497984,-2.245902 2.344741,-6.333859 -0.316439,-8.441441 -1.888832,-1.4959 -4.981525,-1.514161 -6.836062,-0.04036 -2.709059,2.15289 -2.885654,6.218583 -0.368411,8.481801 l 0.748408,0.672883 v 2.278518 c 0,1.599708 0.06177,2.422895 0.207355,2.763139 0.233791,0.546403 0.85258,1.161274 1.524573,1.514914 0.633862,0.333575 1.918362,0.315034 2.603891,-0.03759 z M 39.636827,40.497563 c 3.864784,-1.971665 9.273759,-2.833489 13.639766,-2.173253 2.444372,0.369643 5.219285,1.22063 7.08658,2.173253 0.340342,0.17363 0.660282,0.31569 0.710979,0.31569 0.0507,0 0.06706,-3.473268 0.03637,-7.718373 -0.05384,-7.446634 -0.06734,-7.752839 -0.383394,-8.69729 -1.020412,-3.049206 -3.726832,-5.548399 -6.962073,-6.428991 -1.405307,-0.382508 -6.124813,-0.382508 -7.53012,0 -3.235241,0.880592 -5.941662,3.379785 -6.962073,6.428991 -0.316059,0.944451 -0.329557,1.250656 -0.383393,8.69729 -0.03069,4.245105 -0.01432,7.718373 0.03637,7.718373 0.0507,0 0.370637,-0.14206 0.710979,-0.31569 z"
     id="path18" /></svg>
