<?xml version="1.0" encoding="UTF-8" standalone="no"?>
<svg
   xmlns:dc="http://purl.org/dc/elements/1.1/"
   xmlns:cc="http://creativecommons.org/ns#"
   xmlns:rdf="http://www.w3.org/1999/02/22-rdf-syntax-ns#"
   xmlns:svg="http://www.w3.org/2000/svg"
   xmlns="http://www.w3.org/2000/svg"
   xmlns:sodipodi="http://sodipodi.sourceforge.net/DTD/sodipodi-0.dtd"
   xmlns:inkscape="http://www.inkscape.org/namespaces/inkscape"
   width="210mm"
   height="297mm"
   viewBox="0 0 210 297"
   version="1.1"
   id="svg8"
   inkscape:version="1.0.1 (3bc2e813f5, 2020-09-07)"
   sodipodi:docname="User.svg">
  <defs
     id="defs2" />
  <sodipodi:namedview
     id="base"
     pagecolor="#ffffff"
     bordercolor="#666666"
     borderopacity="1.0"
     inkscape:pageopacity="0.0"
     inkscape:pageshadow="2"
     inkscape:zoom="0.35"
     inkscape:cx="400"
     inkscape:cy="554.28571"
     inkscape:document-units="mm"
     inkscape:current-layer="layer1"
     inkscape:document-rotation="0"
     showgrid="false"
     inkscape:window-width="1920"
     inkscape:window-height="1001"
     inkscape:window-x="-9"
     inkscape:window-y="-9"
     inkscape:window-maximized="1" />
  <metadata
     id="metadata5">
    <rdf:RDF>
      <cc:Work
         rdf:about="">
        <dc:format>image/svg+xml</dc:format>
        <dc:type
           rdf:resource="http://purl.org/dc/dcmitype/StillImage" />
        <dc:title />
      </cc:Work>
    </rdf:RDF>
  </metadata>
  <g
     inkscape:label="레이어 1"
     inkscape:groupmode="layer"
     id="layer1">
    <g
       id="g56"
       transform="matrix(2.111838,0,0,2.1796691,-0.58846048,36.492956)">
      <g
         id="g36">
        <path
           d="M 50,5 C 25.187,5 5,25.187 5,50 5,74.813 25.187,95 50,95 74.813,95 95,74.813 95,50 95,25.187 74.813,5 50,5 Z m 0,86.537 C 27.097,91.537 8.463,72.903 8.463,50 8.463,27.097 27.097,8.463 50,8.463 72.903,8.463 91.537,27.097 91.537,50 91.537,72.903 72.903,91.537 50,91.537 Z"
           id="path30" />
        <path
           d="m 50.003,54.795 c 9.596,0 16.12,-7.783 16.12,-17.382 0,-9.601 -6.524,-17.381 -16.12,-17.381 -9.602,0 -16.126,7.78 -16.126,17.381 0,9.599 6.524,17.382 16.126,17.382 z"
           id="path32" />
        <path
           d="m 63.022,53.654 c -3.442,3.091 -7.948,4.918 -13.02,4.918 -5.074,0 -9.583,-1.827 -13.025,-4.918 C 28.79,58.131 23.138,66.63 22.71,76.513 29.634,83.637 39.306,88.077 50,88.077 c 10.694,0 20.366,-4.44 27.292,-11.563 -0.428,-9.884 -6.083,-18.383 -14.27,-22.86 z"
           id="path34" />
      </g>
    </g>
    <path
       style="fill:#ffffff;stroke:none;stroke-width:2.85714"
       d="M 368.57143,918.18743 C 205.24009,900.68754 77.679603,782.13414 45.215219,617.66349 37.927941,580.74477 38.652629,513.20769 46.74553,475.04666 76.132311,336.4771 176.36621,228.10431 307.78454,192.81154 c 97.6902,-26.23498 198.88526,-8.57297 286.76723,50.05073 27.94243,18.63965 74.9656,65.83061 94.00454,94.34001 C 732.37614,402.8192 753.6116,472.281 753.6116,550 c 0,77.22626 -20.03649,144.04409 -62.17477,207.34074 -65.04317,97.70243 -167.25437,156.0146 -281.90883,160.8308 -16.2404,0.6822 -34.67086,0.68935 -40.95657,0.0171 z m 92.85714,-31.43154 C 525.96323,873.46431 581.0386,843.48637 628.57143,795.77874 682.57529,741.57631 714.482,677.09071 726.05957,598.74866 742.5668,487.04911 701.52243,370.39762 618.76337,293.80404 520.98437,203.30947 379.12983,180.99397 259.12772,237.22885 162.10677,282.6944 91.324077,374.99945 69.676006,484.28571 c -5.245363,26.48023 -5.235369,105.02583 0.01686,131.42858 25.608226,128.73502 120.937364,233.77954 241.208384,265.79094 14.74372,3.9242 36.32249,8.32254 47.95284,9.77408 26.70014,3.33235 74.71254,1.21503 102.57462,-4.52342 z"
       id="path31"
       transform="scale(0.26458333)" />
    <path
       style="fill:#ffffff;stroke-width:2.85714"
       d="m 369.88156,584.58605 c -51.54307,-12.5221 -87.42057,-53.76557 -97.48037,-112.05992 -11.39888,-66.05401 17.95744,-129.04824 72.69681,-155.99634 18.20972,-8.96462 20.54848,-9.38693 51.98478,-9.38693 31.25725,0 33.8624,0.46256 51.66013,9.17261 33.12089,16.20905 59.83497,50.0633 69.85232,88.52252 5.46269,20.97266 5.46627,60.76617 0.007,81.72431 -18.65122,71.60689 -82.96718,113.99827 -148.72103,98.02375 z"
       id="path33"
       transform="scale(0.26458333)" />
    <path
       style="fill:#ffffff;stroke-width:2.85714"
       d="M 359.87195,859.89656 C 300.36712,851.62555 239.77919,822.61484 193.89338,780.42272 l -15.05575,-13.8438 6.01889,-30.51787 c 11.61788,-58.9068 42.53581,-107.9811 88.87803,-141.07116 l 18.02027,-12.86714 12.58443,9.03745 c 56.27143,40.41109 137.89943,39.79193 186.87404,-1.41748 10.91565,-9.18494 13.28134,-8.33035 41.59922,15.02757 42.909,35.39334 72.76058,92.33429 79.55472,151.74815 1.38974,12.15305 1.26737,12.34588 -18.78766,29.60671 -54.03308,46.50486 -116.23811,71.84628 -183.97582,74.94911 -17.06778,0.78181 -39.44708,0.25186 -49.7318,-1.1777 z"
       id="path35"
       transform="scale(0.26458333)" />
    <path
       style="fill:#ffffff;stroke-width:2.85714"
       d=""
       id="path37"
       transform="scale(0.26458333)" />
    <path
       style="fill:#ffffff;stroke-width:2.85714"
       d=""
       id="path39"
       transform="scale(0.26458333)" />
    <path
       style="fill:#ffffff;stroke-width:2.85714"
       d=""
       id="path41"
       transform="scale(0.26458333)" />
    <path
       style="fill:#ffffff;stroke-width:2.85714"
       d=""
       id="path43"
       transform="scale(0.26458333)" />
  </g>
</svg>
